RobotoSerifMicroCond-Super Italic 08fz.ufo
<glyph name="acute.uc" format="2">
  <advance width="418"/>
  <anchor x="156" y="727" name="_top"/>
  <outline>
    <contour>
      <point x="207" y="941" type="curve" smooth="yes"/>
      <point x="115" y="821" type="line"/>
      <point x="104" y="784" type="line"/>
      <point x="154" y="784" type="line"/>
      <point x="271" y="825" type="line" smooth="yes"/>
      <point x="365" y="846"/>
      <point x="407" y="869"/>
      <point x="407" y="924" type="curve" smooth="yes"/>
      <point x="407" y="966"/>
      <point x="373" y="998"/>
      <point x="316" y="998" type="curve" smooth="yes"/>
      <point x="269" y="998"/>
      <point x="242" y="976"/>
    </contour>
  </outline>
</glyph>
<glyph name="breve" format="2">
  <advance width="418"/>
  <anchor x="203" y="517" name="_top"/>
  <outline>
    <contour>
      <point x="222" y="639" type="curve" smooth="yes"/>
      <point x="335" y="639"/>
      <point x="414" y="679"/>
      <point x="424" y="839" type="curve"/>
      <point x="327" y="839" type="line"/>
      <point x="313" y="769"/>
      <point x="299" y="756"/>
      <point x="224" y="756" type="curve" smooth="yes"/>
      <point x="160" y="756"/>
      <point x="150" y="779"/>
      <point x="153" y="839" type="curve"/>
      <point x="56" y="839" type="line"/>
      <point x="51" y="814"/>
      <point x="48" y="793"/>
      <point x="48" y="772" type="curve"/>
      <point x="48" y="686"/>
      <point x="103" y="639"/>
    </contour>
  </outline>
</glyph>
<glyph name="breve.uc" format="2">
  <advance width="418"/>
  <anchor x="204" y="694" name="_top"/>
  <outline>
    <contour>
      <point x="218" y="787" type="curve" smooth="yes"/>
      <point x="92" y="787"/>
      <point x="33" y="837"/>
      <point x="33" y="923" type="curve"/>
      <point x="33" y="944"/>
      <point x="36" y="966"/>
      <point x="41" y="988" type="curve"/>
      <point x="142" y="988" type="line"/>
      <point x="139" y="929"/>
      <point x="148" y="906"/>
      <point x="219" y="906" type="curve" smooth="yes"/>
      <point x="305" y="906"/>
      <point x="316" y="918"/>
      <point x="330" y="988" type="curve"/>
      <point x="431" y="988" type="line"/>
      <point x="430" y="830"/>
      <point x="343" y="787"/>
    </contour>
  </outline>
</glyph>
<glyph name="breve_grave.uc" format="2">
  <advance width="408"/>
  <anchor x="204" y="744" name="_top"/>
  <outline>
    <contour>
      <point x="282" y="1154" type="curve" smooth="yes"/>
      <point x="330" y="1046" type="line"/>
      <point x="327" y="1009" type="line"/>
      <point x="276" y="1009" type="line"/>
      <point x="183" y="1049" type="line" smooth="yes"/>
      <point x="109" y="1067"/>
      <point x="70" y="1095"/>
      <point x="70" y="1142" type="curve" smooth="yes"/>
      <point x="70" y="1182"/>
      <point x="103" y="1223"/>
      <point x="166" y="1223" type="curve" smooth="yes"/>
      <point x="229" y="1223"/>
      <point x="257" y="1195"/>
    </contour>
    <component base="breve.uc"/>
  </outline>
</glyph>
<glyph name="caron.alt" format="2">
  <advance width="418"/>
  <anchor x="42" y="574" name="_right"/>
  <outline>
    <contour>
      <point x="255" y="533" type="line"/>
      <point x="119" y="533" type="line"/>
      <point x="129" y="570" type="line"/>
      <point x="167" y="710" type="line"/>
      <point x="350" y="710" type="line"/>
    </contour>
  </outline>
</glyph>
<glyph name="circumflex_acute" format="2">
  <advance width="409"/>
  <anchor x="162" y="558" name="_top"/>
  <outline>
    <contour>
      <point x="458" y="941" type="curve" smooth="yes"/>
      <point x="402" y="818" type="line"/>
      <point x="392" y="782" type="line"/>
      <point x="445" y="782" type="line"/>
      <point x="548" y="854" type="line" smooth="yes"/>
      <point x="601" y="878"/>
      <point x="650" y="906"/>
      <point x="650" y="955" type="curve" smooth="yes"/>
      <point x="650" y="995"/>
      <point x="612" y="1024"/>
      <point x="566" y="1024" type="curve" smooth="yes"/>
      <point x="516" y="1024"/>
      <point x="487" y="990"/>
    </contour>
    <component base="circumflex"/>
  </outline>
</glyph>
<glyph name="circumflex_grave.uc" format="2">
  <advance width="404"/>
  <anchor x="178" y="696" name="_top"/>
  <outline>
    <contour>
      <point x="509" y="1074" type="line" smooth="yes"/>
      <point x="486" y="1118"/>
      <point x="455" y="1153"/>
      <point x="395" y="1153" type="curve" smooth="yes"/>
      <point x="341" y="1153"/>
      <point x="303" y="1122"/>
      <point x="303" y="1079" type="curve" smooth="yes"/>
      <point x="303" y="1033"/>
      <point x="337" y="1007"/>
      <point x="417" y="977" type="curve" smooth="yes"/>
      <point x="511" y="921" type="line"/>
      <point x="561" y="921" type="line"/>
      <point x="560" y="958" type="line"/>
    </contour>
    <component base="circumflex.uc"/>
  </outline>
</glyph>
<glyph name="circumflex_hook" format="2">
  <advance width="408"/>
  <anchor x="171" y="559" name="_top"/>
  <outline>
    <contour>
      <point x="314" y="938" type="line"/>
      <point x="336" y="1032"/>
      <point x="410" y="1061"/>
      <point x="492" y="1061" type="curve" smooth="yes"/>
      <point x="611" y="1061"/>
      <point x="654" y="1027"/>
      <point x="654" y="953" type="curve" smooth="yes"/>
      <point x="654" y="866"/>
      <point x="595" y="829"/>
      <point x="439" y="829" type="curve"/>
      <point x="514" y="874" type="line"/>
      <point x="493" y="781" type="line"/>
      <point x="390" y="781" type="line"/>
      <point x="413" y="879" type="line"/>
      <point x="503" y="881"/>
      <point x="524" y="903"/>
      <point x="524" y="949" type="curve" smooth="yes"/>
      <point x="524" y="978"/>
      <point x="510" y="989"/>
      <point x="487" y="989" type="curve" smooth="yes"/>
      <point x="459" y="989"/>
      <point x="443" y="975"/>
      <point x="434" y="938" type="curve"/>
    </contour>
    <component base="circumflex"/>
  </outline>
</glyph>
<glyph name="circumflex_tilde" format="2">
  <advance width="418"/>
  <anchor x="201" y="551" name="_top"/>
  <outline>
    <contour>
      <point x="297" y="826" type="line"/>
      <point x="388" y="673" type="line"/>
      <point x="375" y="633" type="line"/>
      <point x="317" y="633" type="line"/>
      <point x="186" y="729" type="line"/>
      <point x="221" y="722" type="line"/>
      <point x="58" y="633" type="line"/>
      <point x="-15" y="633" type="line"/>
      <point x="-3" y="673" type="line"/>
      <point x="159" y="826" type="line"/>
    </contour>
    <contour>
      <point x="186" y="1077" type="curve" smooth="yes"/>
      <point x="116" y="1077"/>
      <point x="77" y="1038"/>
      <point x="36" y="906" type="curve"/>
      <point x="121" y="884" type="line"/>
      <point x="138" y="943"/>
      <point x="147" y="973"/>
      <point x="168" y="973" type="curve"/>
      <point x="207" y="973"/>
      <point x="210" y="886"/>
      <point x="309" y="886" type="curve" smooth="yes"/>
      <point x="377" y="886"/>
      <point x="425" y="921"/>
      <point x="459" y="1060" type="curve"/>
      <point x="375" y="1083" type="line"/>
      <point x="357" y="1020"/>
      <point x="345" y="992"/>
      <point x="322" y="992" type="curve" smooth="yes"/>
      <point x="279" y="992"/>
      <point x="278" y="1077"/>
    </contour>
  </outline>
</glyph>
<glyph name="circumflex_tilde.uc" format="2">
  <advance width="418"/>
  <anchor x="201" y="694" name="_top"/>
  <outline>
    <contour>
      <point x="300" y="1012" type="curve"/>
      <point x="370" y="1012"/>
      <point x="411" y="1049"/>
      <point x="445" y="1181" type="curve"/>
      <point x="364" y="1204" type="line"/>
      <point x="347" y="1141"/>
      <point x="338" y="1120"/>
      <point x="313" y="1120" type="curve" smooth="yes"/>
      <point x="276" y="1120"/>
      <point x="269" y="1195"/>
      <point x="185" y="1195" type="curve" smooth="yes"/>
      <point x="110" y="1195"/>
      <point x="77" y="1158"/>
      <point x="33" y="1033" type="curve"/>
      <point x="114" y="1010" type="line"/>
      <point x="130" y="1069"/>
      <point x="137" y="1090"/>
      <point x="160" y="1090" type="curve" smooth="yes"/>
      <point x="198" y="1090"/>
      <point x="205" y="1012"/>
    </contour>
    <contour>
      <point x="303" y="961" type="line"/>
      <point x="395" y="815" type="line"/>
      <point x="383" y="776" type="line"/>
      <point x="317" y="776" type="line"/>
      <point x="188" y="868" type="line"/>
      <point x="223" y="860" type="line"/>
      <point x="59" y="776" type="line"/>
      <point x="-19" y="776" type="line"/>
      <point x="-6" y="815" type="line"/>
      <point x="159" y="961" type="line"/>
    </contour>
  </outline>
</glyph>
<glyph name="dblgrave" format="2">
  <advance width="418"/>
  <anchor x="192" y="539" name="_top"/>
  <outline>
    <contour>
      <point x="401" y="800" type="line" smooth="yes"/>
      <point x="396" y="856"/>
      <point x="368" y="883"/>
      <point x="318" y="883" type="curve" smooth="yes"/>
      <point x="264" y="883"/>
      <point x="236" y="853"/>
      <point x="236" y="813" type="curve" smooth="yes"/>
      <point x="236" y="775"/>
      <point x="254" y="753"/>
      <point x="301" y="713" type="curve" smooth="yes"/>
      <point x="354" y="643" type="line"/>
      <point x="403" y="643" type="line"/>
      <point x="405" y="680" type="line"/>
    </contour>
    <contour>
      <point x="211" y="800" type="line" smooth="yes"/>
      <point x="206" y="856"/>
      <point x="178" y="883"/>
      <point x="128" y="883" type="curve" smooth="yes"/>
      <point x="75" y="883"/>
      <point x="46" y="853"/>
      <point x="46" y="813" type="curve" smooth="yes"/>
      <point x="46" y="775"/>
      <point x="65" y="753"/>
      <point x="112" y="713" type="curve" smooth="yes"/>
      <point x="164" y="643" type="line"/>
      <point x="214" y="643" type="line"/>
      <point x="215" y="680" type="line"/>
    </contour>
  </outline>
</glyph>
<glyph name="dotaccent" format="2">
  <advance width="418"/>
  <anchor x="203" y="526" name="_top"/>
  <outline>
    <contour>
      <point x="238" y="636" type="curve" smooth="yes"/>
      <point x="164" y="636"/>
      <point x="122" y="664"/>
      <point x="122" y="727" type="curve" smooth="yes"/>
      <point x="122" y="787"/>
      <point x="164" y="817"/>
      <point x="238" y="817" type="curve" smooth="yes"/>
      <point x="310" y="817"/>
      <point x="351" y="787"/>
      <point x="351" y="727" type="curve" smooth="yes"/>
      <point x="351" y="665"/>
      <point x="310" y="636"/>
    </contour>
  </outline>
</glyph>
<glyph name="fl" format="2">
  <advance width="717"/>
  <outline>
    <contour>
      <point x="72" y="569" type="line"/>
      <point x="52" y="485" type="line"/>
      <point x="433" y="485" type="line"/>
      <point x="454" y="569" type="line"/>
    </contour>
    <contour>
      <point x="462" y="698" type="curve" smooth="yes"/>
      <point x="520" y="698"/>
      <point x="551" y="685"/>
      <point x="565" y="679" type="curve"/>
      <point x="598" y="730" type="line"/>
      <point x="557" y="752"/>
      <point x="482" y="785"/>
      <point x="407" y="785" type="curve" smooth="yes"/>
      <point x="243" y="785"/>
      <point x="175" y="738"/>
      <point x="153" y="608" type="curve" smooth="yes"/>
      <point x="13" y="-241" type="line"/>
      <point x="179" y="-241" type="line"/>
      <point x="377" y="621" type="line" smooth="yes"/>
      <point x="390" y="676"/>
      <point x="407" y="698"/>
    </contour>
    <contour>
      <point x="639" y="251" type="curve" smooth="yes"/>
      <point x="771" y="780" type="line"/>
      <point x="420" y="780" type="line"/>
      <point x="537" y="708" type="line"/>
      <point x="422" y="246" type="line" smooth="yes"/>
      <point x="398" y="151"/>
      <point x="391" y="120"/>
      <point x="391" y="93" type="curve" smooth="yes"/>
      <point x="391" y="33"/>
      <point x="433" y="0"/>
      <point x="504" y="0" type="curve" smooth="yes"/>
      <point x="545" y="0"/>
      <point x="588" y="0"/>
      <point x="630" y="0" type="curve"/>
      <point x="652" y="96" type="line"/>
      <point x="647" y="96"/>
      <point x="643" y="96"/>
      <point x="639" y="96" type="curve"/>
      <point x="619" y="96"/>
      <point x="609" y="103"/>
      <point x="609" y="120" type="curve" smooth="yes"/>
      <point x="609" y="134"/>
      <point x="617" y="164"/>
    </contour>
  </outline>
</glyph>
<glyph name="grave" format="2">
  <advance width="418"/>
  <anchor x="154" y="531" name="_top"/>
  <outline>
    <contour>
      <point x="380" y="802" type="curve" smooth="yes"/>
      <point x="409" y="680" type="line"/>
      <point x="402" y="643" type="line"/>
      <point x="351" y="643" type="line"/>
      <point x="263" y="719" type="line" smooth="yes"/>
      <point x="227" y="742"/>
      <point x="194" y="766"/>
      <point x="194" y="808" type="curve" smooth="yes"/>
      <point x="194" y="846"/>
      <point x="225" y="884"/>
      <point x="284" y="884" type="curve" smooth="yes"/>
      <point x="345" y="884"/>
      <point x="364" y="850"/>
    </contour>
  </outline>
</glyph>
<glyph name="hook" format="2">
  <advance width="418"/>
  <anchor x="188" y="517" name="_top"/>
  <outline>
    <contour>
      <point x="15" y="804" type="line"/>
      <point x="39" y="902"/>
      <point x="120" y="942"/>
      <point x="219" y="942" type="curve" smooth="yes"/>
      <point x="343" y="942"/>
      <point x="403" y="906"/>
      <point x="403" y="826" type="curve" smooth="yes"/>
      <point x="403" y="722"/>
      <point x="331" y="685"/>
      <point x="162" y="685" type="curve"/>
      <point x="238" y="733" type="line"/>
      <point x="216" y="638" type="line"/>
      <point x="104" y="638" type="line"/>
      <point x="127" y="741" type="line"/>
      <point x="228" y="745"/>
      <point x="259" y="762"/>
      <point x="259" y="818" type="curve" smooth="yes"/>
      <point x="259" y="851"/>
      <point x="246" y="864"/>
      <point x="211" y="864" type="curve" smooth="yes"/>
      <point x="175" y="864"/>
      <point x="162" y="848"/>
      <point x="151" y="804" type="curve"/>
    </contour>
  </outline>
</glyph>
<glyph name="hungarumlaut.uc" format="2">
  <advance width="418"/>
  <anchor x="225" y="694" name="_top"/>
  <outline>
    <contour>
      <point x="29" y="927" type="curve" smooth="yes"/>
      <point x="0" y="821" type="line"/>
      <point x="1" y="784" type="line"/>
      <point x="48" y="784" type="line"/>
      <point x="133" y="838" type="line" smooth="yes"/>
      <point x="180" y="865"/>
      <point x="222" y="893"/>
      <point x="222" y="938" type="curve" smooth="yes"/>
      <point x="222" y="978"/>
      <point x="193" y="1006"/>
      <point x="138" y="1006" type="curve" smooth="yes"/>
      <point x="79" y="1006"/>
      <point x="48" y="972"/>
    </contour>
    <contour>
      <point x="252" y="927" type="curve" smooth="yes"/>
      <point x="224" y="821" type="line"/>
      <point x="224" y="784" type="line"/>
      <point x="272" y="784" type="line"/>
      <point x="356" y="838" type="line" smooth="yes"/>
      <point x="404" y="865"/>
      <point x="445" y="893"/>
      <point x="445" y="938" type="curve" smooth="yes"/>
      <point x="445" y="978"/>
      <point x="417" y="1006"/>
      <point x="362" y="1006" type="curve" smooth="yes"/>
      <point x="303" y="1006"/>
      <point x="271" y="972"/>
    </contour>
  </outline>
</glyph>
<glyph name="less" format="2">
  <advance width="560"/>
  <outline>
    <contour>
      <point x="409" y="67.0" type="line"/>
      <point x="64" y="272.0" type="line"/>
      <point x="96" y="399.0" type="line"/>
      <point x="543" y="604.0" type="line"/>
      <point x="509" y="460.0" type="line"/>
      <point x="174" y="313.0" type="line"/>
      <point x="183" y="349.0" type="line"/>
      <point x="445" y="202.0" type="line"/>
    </contour>
  </outline>
</glyph>
<glyph name="ordmasculine" format="2">
  <advance width="582"/>
  <outline>
    <contour>
      <point x="282" y="289" type="curve" smooth="yes"/>
      <point x="479" y="289"/>
      <point x="532" y="437"/>
      <point x="532" y="557" type="curve" smooth="yes"/>
      <point x="532" y="671"/>
      <point x="455" y="730"/>
      <point x="340" y="730" type="curve" smooth="yes"/>
      <point x="143" y="730"/>
      <point x="90" y="581"/>
      <point x="90" y="462" type="curve" smooth="yes"/>
      <point x="90" y="348"/>
      <point x="169" y="289"/>
    </contour>
    <contour>
      <point x="334" y="647" type="curve" smooth="yes"/>
      <point x="360" y="647"/>
      <point x="367" y="626"/>
      <point x="367" y="599" type="curve" smooth="yes"/>
      <point x="367" y="564"/>
      <point x="360" y="517"/>
      <point x="349" y="467" type="curve" smooth="yes"/>
      <point x="338" y="417"/>
      <point x="326" y="371"/>
      <point x="288" y="371" type="curve" smooth="yes"/>
      <point x="262" y="371"/>
      <point x="255" y="393"/>
      <point x="255" y="420" type="curve" smooth="yes"/>
      <point x="255" y="454"/>
      <point x="263" y="501"/>
      <point x="274" y="551" type="curve" smooth="yes"/>
      <point x="286" y="602"/>
      <point x="296" y="647"/>
    </contour>
  </outline>
</glyph>
<glyph name="ring" format="2">
  <advance width="418"/>
  <anchor x="206" y="526" name="_top"/>
  <outline>
    <contour>
      <point x="220" y="688" type="curve" smooth="yes"/>
      <point x="179" y="688"/>
      <point x="161" y="709"/>
      <point x="161" y="744" type="curve" smooth="yes"/>
      <point x="161" y="783"/>
      <point x="176" y="823"/>
      <point x="222" y="823" type="curve" smooth="yes"/>
      <point x="263" y="823"/>
      <point x="281" y="802"/>
      <point x="281" y="767" type="curve" smooth="yes"/>
      <point x="281" y="728"/>
      <point x="266" y="688"/>
    </contour>
    <contour>
      <point x="216" y="618" type="curve" smooth="yes"/>
      <point x="315" y="618"/>
      <point x="378" y="682"/>
      <point x="378" y="764" type="curve" smooth="yes"/>
      <point x="378" y="840"/>
      <point x="320" y="893"/>
      <point x="226" y="893" type="curve" smooth="yes"/>
      <point x="126" y="893"/>
      <point x="64" y="829"/>
      <point x="64" y="747" type="curve" smooth="yes"/>
      <point x="64" y="671"/>
      <point x="122" y="618"/>
    </contour>
  </outline>
</glyph>
<glyph name="ringhalfleft" format="2">
  <advance width="418"/>
  <anchor x="221" y="566" name="_top"/>
  <outline>
    <contour>
      <point x="216" y="618" type="curve"/>
      <point x="220" y="688" type="line"/>
      <point x="179" y="688"/>
      <point x="161" y="709"/>
      <point x="161" y="744" type="curve" smooth="yes"/>
      <point x="161" y="783"/>
      <point x="176" y="823"/>
      <point x="222" y="823" type="curve"/>
      <point x="226" y="893" type="line"/>
      <point x="126" y="893"/>
      <point x="64" y="829"/>
      <point x="64" y="747" type="curve" smooth="yes"/>
      <point x="64" y="671"/>
      <point x="122" y="618"/>
    </contour>
  </outline>
</glyph>
